<?xml version="1.0" encoding="UTF-8"?>
<!DOCTYPE svg PUBLIC "-//W3C//DTD SVG 1.1//EN" "http://www.w3.org/Graphics/SVG/1.1/DTD/svg11.dtd">
<!-- Creator: CorelDRAW 2020 (64 Bit) -->
<svg xmlns="http://www.w3.org/2000/svg" xml:space="preserve" width="2458px" height="512px" version="1.1" style="shape-rendering:geometricPrecision; text-rendering:geometricPrecision; image-rendering:optimizeQuality; fill-rule:evenodd; clip-rule:evenodd"
viewBox="0 0 2458 512"
 xmlns:xlink="http://www.w3.org/1999/xlink"
 xmlns:xodm="http://www.corel.com/coreldraw/odm/2003">
 <defs>
  <style type="text/css">
   <![CDATA[
    .str0 {stroke:#373435;stroke-width:0.567;stroke-miterlimit:22.9256}
    .fil3 {fill:none}
    .fil1 {fill:#FEFEFE}
    .fil5 {fill:#753330;fill-rule:nonzero}
    .fil2 {fill:url(#id1)}
    .fil4 {fill:url(#id2)}
    .fil0 {fill:url(#id3)}
   ]]>
  </style>
     <clipPath id="id0">
      <path d="M301.849 276.958c40.694,-83.163 60.34,-121.26 58.936,-114.29 53.141,-18.728 85.856,-29.758 98.146,-33.089 -78.541,146.911 -117.812,220.366 -117.812,220.366 -26.18,-48.658 -39.27,-72.987 -39.27,-72.987z"/>
     </clipPath>
  <linearGradient id="id1" gradientUnits="userSpaceOnUse" x1="282.827" y1="387.445" x2="475.342" y2="68.919">
   <stop offset="0" style="stop-opacity:1; stop-color:#3F1417"/>
   <stop offset="0.501961" style="stop-opacity:1; stop-color:#85302D"/>
   <stop offset="1" style="stop-opacity:1; stop-color:#C94541"/>
  </linearGradient>
  <linearGradient id="id2" gradientUnits="userSpaceOnUse" x1="337.409" y1="399.776" x2="145.667" y2="101.863">
   <stop offset="0" style="stop-opacity:1; stop-color:#373435"/>
   <stop offset="0.470588" style="stop-opacity:1; stop-color:#444644"/>
   <stop offset="1" style="stop-opacity:1; stop-color:#5E5D5E"/>
  </linearGradient>
  <linearGradient id="id3" gradientUnits="userSpaceOnUse" x1="772.241" y1="29.1" x2="-192.129" y2="447.488">
   <stop offset="0" style="stop-opacity:1; stop-color:#9D3836"/>
   <stop offset="1" style="stop-opacity:1; stop-color:#282829"/>
  </linearGradient>
 </defs>
 <g id="Camada_x0020_1">
  <metadata id="CorelCorpID_0Corel-Layer"/>
  <g id="_2752063679600">
   <circle class="fil0" cx="294.11" cy="255.123" r="227.396"/>
   <circle class="fil1" cx="294.11" cy="255.123" r="207.71"/>
   <g>
    <g>
    </g>
    <g style="clip-path:url(#id0)">
     <g>
      <polygon class="fil2" points="389.418,263.589 390.954,263.589 390.954,262.052 392.49,262.052 392.49,260.515 394.026,260.515 394.026,255.903 395.562,255.903 395.562,252.829 397.098,252.829 397.098,249.754 398.634,249.754 398.634,248.217 400.17,248.217 400.17,245.142 401.706,245.142 401.706,242.068 403.242,242.068 403.242,240.531 404.778,240.531 404.778,235.919 406.314,235.919 406.314,232.845 407.85,232.845 407.85,231.308 409.386,231.308 409.386,226.696 410.922,226.696 410.922,225.159 412.458,225.159 412.458,223.622 413.994,223.622 413.994,219.01 415.531,219.01 415.531,217.473 417.066,217.473 417.066,212.861 418.602,212.861 418.602,209.786 420.139,209.786 420.139,208.249 421.675,208.249 421.675,205.175 423.21,205.175 423.21,202.101 424.746,202.101 424.746,200.563 426.283,200.563 426.283,197.489 427.818,197.489 427.818,194.415 429.354,194.415 429.354,192.877 430.89,192.877 430.89,188.266 432.426,188.266 432.426,186.728 433.963,186.728 433.963,183.654 435.499,183.654 435.499,179.042 437.035,179.042 437.035,175.967 438.571,175.967 438.571,174.431 440.107,174.431 440.107,171.355 441.643,171.355 441.643,168.282 443.179,168.282 443.179,165.207 444.715,165.207 444.715,160.596 447.787,160.596 447.787,155.984 449.323,155.984 449.323,151.372 450.859,151.372 450.859,149.835 452.395,149.835 452.395,146.761 453.931,146.761 453.931,145.223 455.467,145.223 455.467,140.612 457.003,140.612 457.003,137.538 460.076,137.538 460.076,134.463 461.611,134.463 461.611,131.389 463.147,131.389 463.147,128.314 464.683,128.314 464.683,123.703 467.755,123.703 467.755,119.091 464.683,119.091 464.683,120.628 461.611,120.628 461.611,122.165 457.003,122.165 457.003,123.703 452.395,123.703 452.395,125.24 447.787,125.24 447.787,126.777 441.643,126.777 441.643,128.314 440.107,128.314 440.107,129.851 435.499,129.851 435.499,131.389 430.89,131.389 430.89,132.925 426.283,132.925 426.283,134.463 423.21,134.463 423.21,136 415.531,136 415.531,137.538 412.458,137.538 412.458,139.074 404.778,139.074 404.778,140.612 401.706,140.612 401.706,142.149 398.634,142.149 398.634,143.686 390.954,143.686 390.954,145.223 386.346,145.223 386.346,146.761 381.738,146.761 381.738,149.835 374.057,149.835 374.057,151.372 372.522,151.372 372.522,152.909 366.377,152.909 366.377,154.447 360.233,154.447 360.233,155.984 358.697,155.984 358.697,159.058 357.161,159.058 357.161,160.596 355.625,160.596 355.625,163.67 354.089,163.67 354.089,166.744 352.553,166.744 352.553,168.282 351.017,168.282 351.017,174.431 349.481,174.431 349.481,175.967 347.945,175.967 347.945,180.579 346.409,180.579 346.409,183.654 344.873,183.654 344.873,186.728 343.337,186.728 343.337,189.803 340.265,189.803 340.265,194.415 338.729,194.415 338.729,197.489 337.193,197.489 337.193,199.026 337.193,200.563 335.657,200.563 335.657,203.638 334.12,203.638 334.12,206.712 332.585,206.712 332.585,209.786 331.049,209.786 331.049,212.861 329.513,212.861 329.513,215.935 326.441,215.935 326.441,219.01 324.905,219.01 324.905,223.622 323.369,223.622 323.369,225.159 321.832,225.159 321.832,229.77 320.296,229.77 320.296,232.845 318.76,232.845 318.76,235.919 315.688,235.919 315.688,240.531 314.152,240.531 314.152,242.068 312.616,242.068 312.616,246.68 311.08,246.68 311.08,248.217 309.544,248.217 309.544,252.829 308.008,252.829 308.008,254.366 306.472,254.366 306.472,257.44 304.936,257.44 304.936,258.977 303.4,258.977 303.4,262.052 301.864,262.052 301.864,266.664 300.328,266.664 300.328,269.738 297.256,269.738 297.256,274.35 295.72,274.35 295.72,280.499 297.256,280.499 297.256,285.11 298.792,285.11 298.792,286.647 300.328,286.647 300.328,291.259 301.864,291.259 301.864,294.334 303.4,294.334 303.4,297.408 304.936,297.408 304.936,298.945 306.472,298.945 306.472,303.556 308.008,303.556 308.008,306.631 309.544,306.631 309.544,309.705 311.08,309.705 311.08,312.78 312.616,312.78 312.616,315.854 314.152,315.854 314.152,318.929 315.688,318.929 315.688,322.002 317.224,322.002 317.224,323.54 318.76,323.54 318.76,326.614 320.296,326.614 320.296,328.153 321.832,328.153 321.832,331.227 323.369,331.227 323.369,335.838 324.905,335.838 324.905,338.913 326.441,338.913 326.441,340.45 327.977,340.45 327.977,345.062 329.513,345.062 329.513,346.599 331.049,346.599 331.049,349.673 332.585,349.673 332.585,354.285 334.12,354.285 334.12,357.359 335.657,357.359 335.657,360.433 338.729,360.433 338.729,358.896 340.265,358.896 340.265,357.359 341.801,357.359 341.801,354.285 343.337,354.285 343.337,351.21 344.873,351.21 344.873,348.136 346.409,348.136 346.409,345.062 347.945,345.062 347.945,341.987 349.481,341.987 349.481,340.45 351.017,340.45 351.017,337.375 352.553,337.375 352.553,334.301 354.089,334.301 354.089,331.227 355.625,331.227 355.625,328.153 357.161,328.153 357.161,326.614 358.697,326.614 358.697,323.54 360.233,323.54 360.233,320.466 361.769,320.466 361.769,315.854 363.305,315.854 363.305,312.78 364.841,312.78 364.841,311.243 366.377,311.243 366.377,306.631 367.913,306.631 367.913,303.556 369.45,303.556 369.45,302.019 370.985,302.019 370.985,298.945 372.522,298.945 372.522,297.408 374.057,297.408 374.057,292.796 375.594,292.796 375.594,291.259 377.13,291.259 377.13,288.185 378.665,288.185 378.665,285.11 380.202,285.11 380.202,282.036 381.738,282.036 381.738,278.962 383.273,278.962 383.273,275.887 384.809,275.887 384.809,272.813 386.346,272.813 386.346,271.275 387.882,271.275 387.882,268.201 389.418,268.201 "/>
     </g>
    </g>
    <path class="fil3" d="M301.849 276.958c40.694,-83.163 60.34,-121.26 58.936,-114.29 53.141,-18.728 85.856,-29.758 98.146,-33.089 -78.541,146.911 -117.812,220.366 -117.812,220.366 -26.18,-48.658 -39.27,-72.987 -39.27,-72.987z"/>
    <path class="fil3 str0" d="M155.161 167.476c-27.026,-21.865 -37.779,-30.287 -32.258,-25.265 70.126,8.422 105.19,12.633 105.19,12.633 71.996,134.746 107.994,202.119 107.994,202.119 -25.246,48.658 -37.869,72.987 -37.869,72.987 -95.371,-174.982 -143.057,-262.474 -143.057,-262.474z"/>
    <path class="fil4" d="M123.647 142.3c4.237,3.215 14.742,11.607 31.514,25.176 0,0 47.686,87.492 143.057,262.474 0,0 12.623,-24.329 37.869,-72.987 0,0 -35.998,-67.373 -107.994,-202.119 0,0 -34.815,-4.181 -104.446,-12.544z"/>
   </g>
  </g>
  <polygon class="fil5" points="662.134,392.705 662.134,392.705 525.243,156.347 584.332,156.347 683.471,328.035 782.611,156.347 841.372,156.347 704.481,392.705 "/>
  <path id="1" class="fil5" d="M863.367 392.705l0 0 0 -190.4 50.226 0 0 190.4 -50.226 0zm0 -202.218l0 0 0 -50.554 50.226 0 0 50.554 -50.226 0z"/>
  <path id="2" class="fil5" d="M945.764 468.209l0 0 0 -265.904 145.426 0c8.754,0 16.742,2.189 23.964,6.566 7.222,4.377 12.967,10.122 17.235,17.234 4.267,7.113 6.401,15.046 6.401,23.8l0 95.2c0,8.754 -2.134,16.688 -6.401,23.8 -4.268,7.113 -10.013,12.858 -17.235,17.235 -7.222,4.377 -15.21,6.565 -23.964,6.565l-95.2 0 0 75.504 -50.226 0zm50.226 -125.73l92.574 0c0,0 0,0 0,0 0,0 0,0 0,0l0 -89.947c0,0 0,0 0,0 0,0 0,0 0,0l-92.574 0c0,0 0,0 0,0 0,0 0,0 0,0l0 89.947c0,0 0,0 0,0 0,0 0,0 0,0z"/>
  <path id="3" class="fil5" d="M1210.354 392.705c-8.754,0 -16.687,-2.188 -23.8,-6.565 -7.112,-4.377 -12.857,-10.122 -17.234,-17.235 -4.377,-7.112 -6.566,-15.046 -6.566,-23.8l0 -95.2c0,-8.754 2.189,-16.687 6.566,-23.8 4.377,-7.112 10.122,-12.857 17.234,-17.234 7.113,-4.377 15.046,-6.566 23.8,-6.566l97.827 0c8.973,0 17.015,2.134 24.128,6.402 7.113,4.267 12.803,10.067 17.07,17.398 4.268,7.332 6.402,15.265 6.402,23.8l0 72.878 -142.8 0 0 19.696c0,0 0,0 0,0 0,0 0,0 0,0l142.8 0 0 50.226 -145.427 0zm2.627 -113.911l92.573 0 0 -26.262c0,0 0,0 0,0 0,0 0,0 0,0l-92.573 0c0,0 0,0 0,0 0,0 0,0 0,0l0 26.262z"/>
  <path id="4" class="fil5" d="M1387.952 392.705l0 0 0 -142.8c0,-8.754 2.188,-16.687 6.565,-23.8 4.377,-7.112 10.177,-12.857 17.399,-17.234 7.222,-4.377 15.21,-6.566 23.964,-6.566l105.048 0 0 50.227 -102.75 0c0,0 0,0 0,0 0,0 0,0 0,0l0 140.173 -50.226 0z"/>
  <path id="5" class="fil5" d="M1610.523 392.705c-8.973,0 -17.125,-2.188 -24.457,-6.565 -7.331,-4.377 -13.185,-10.231 -17.563,-17.563 -4.377,-7.331 -6.565,-15.484 -6.565,-24.456l0 -139.189c0,-8.973 2.188,-17.125 6.565,-24.457 4.378,-7.331 10.232,-13.186 17.563,-17.563 7.332,-4.377 15.484,-6.565 24.457,-6.565l187.117 0 0 51.211 -173.986 0c-3.502,0 -6.183,0.875 -8.043,2.626 -1.86,1.751 -2.79,4.486 -2.79,8.207l0 112.27c0,3.502 0.93,6.183 2.79,8.043 1.86,1.86 4.541,2.79 8.043,2.79l173.986 0 0 51.211 -187.117 0z"/>
  <path id="6" class="fil5" d="M1831.124 392.705l0 0 0 -252.772 50.226 0 0 62.372 95.2 0c8.754,0 16.688,2.189 23.8,6.566 7.113,4.377 12.858,10.122 17.235,17.234 4.377,7.113 6.565,15.046 6.565,23.8l0 142.8 -50.226 0 0 -140.173c0,0 0,0 0,0 0,0 0,0 0,0l-92.574 0c0,0 0,0 0,0 0,0 0,0 0,0l0 140.173 -50.226 0z"/>
  <path id="7" class="fil5" d="M2097.356 392.705c-8.754,0 -16.742,-2.188 -23.964,-6.565 -7.222,-4.377 -12.967,-10.122 -17.235,-17.235 -4.267,-7.112 -6.401,-15.046 -6.401,-23.8l0 -72.877 142.8 0 0 -19.696c0,0 0,0 0,0 0,0 0,0 0,0l-142.8 0 0 -50.227 145.426 0c8.973,0 17.016,2.134 24.128,6.402 7.113,4.267 12.803,10.067 17.071,17.398 4.267,7.332 6.401,15.265 6.401,23.8l0 142.8 -145.426 0zm2.626 -50.226l92.574 0 0 -26.262 -92.574 0 0 26.262c0,0 0,0 0,0 0,0 0,0 0,0z"/>
  <path id="8" class="fil5" d="M2325.836 392.705c-8.973,0 -17.016,-2.188 -24.128,-6.565 -7.113,-4.377 -12.858,-10.122 -17.235,-17.235 -4.377,-7.112 -6.566,-15.046 -6.566,-23.8l0 -199.263 50.227 0 0 56.463 70.579 0 0 50.227 -70.579 0 0 89.947c0,0 0,0 0,0 0,0 0,0 0,0l70.579 0 0 50.226 -72.877 0z"/>
 </g>
</svg>
