<?xml version="1.0" encoding="UTF-8"?>
<!DOCTYPE svg PUBLIC "-//W3C//DTD SVG 1.1//EN" "http://www.w3.org/Graphics/SVG/1.1/DTD/svg11.dtd">
<!-- Creator: CorelDRAW 2020 (64 Bit) -->
<svg xmlns="http://www.w3.org/2000/svg" xml:space="preserve" width="16px" height="16px" version="1.1" style="shape-rendering:geometricPrecision; text-rendering:geometricPrecision; image-rendering:optimizeQuality; fill-rule:evenodd; clip-rule:evenodd"
viewBox="0 0 16 16"
 xmlns:xlink="http://www.w3.org/1999/xlink"
 xmlns:xodm="http://www.corel.com/coreldraw/odm/2003">
 <defs>
  <style type="text/css">
   <![CDATA[
    .str0 {stroke:#373435;stroke-width:0.567;stroke-miterlimit:22.9256}
    .fil3 {fill:none}
    .fil1 {fill:#FEFEFE}
    .fil2 {fill:url(#id1)}
    .fil4 {fill:url(#id2)}
    .fil0 {fill:url(#id3)}
   ]]>
  </style>
     <clipPath id="id0">
      <path d="M8.272 8.768c1.432,-2.925 2.123,-4.266 2.074,-4.021 1.869,-0.659 3.02,-1.047 3.453,-1.164 -2.764,5.169 -4.145,7.753 -4.145,7.753 -0.921,-1.712 -1.382,-2.568 -1.382,-2.568z"/>
     </clipPath>
  <linearGradient id="id1" gradientUnits="userSpaceOnUse" x1="7.603" y1="12.655" x2="14.376" y2="1.449">
   <stop offset="0" style="stop-opacity:1; stop-color:#3F1417"/>
   <stop offset="0.501961" style="stop-opacity:1; stop-color:#85302D"/>
   <stop offset="1" style="stop-opacity:1; stop-color:#C94541"/>
  </linearGradient>
  <linearGradient id="id2" gradientUnits="userSpaceOnUse" x1="9.523" y1="13.089" x2="2.778" y2="2.608">
   <stop offset="0" style="stop-opacity:1; stop-color:#373435"/>
   <stop offset="0.470588" style="stop-opacity:1; stop-color:#444644"/>
   <stop offset="1" style="stop-opacity:1; stop-color:#5E5D5E"/>
  </linearGradient>
  <linearGradient id="id3" gradientUnits="userSpaceOnUse" x1="24.821" y1="0.048" x2="-9.106" y2="14.767">
   <stop offset="0" style="stop-opacity:1; stop-color:#9D3836"/>
   <stop offset="1" style="stop-opacity:1; stop-color:#282829"/>
  </linearGradient>
 </defs>
 <g id="Camada_x0020_1">
  <metadata id="CorelCorpID_0Corel-Layer"/>
  <g id="_2752065818960">
   <circle class="fil0" cx="8" cy="8" r="8"/>
   <circle class="fil1" cx="8" cy="8" r="7.307"/>
   <g>
    <g>
    </g>
    <g style="clip-path:url(#id0)">
     <g>
      <polygon class="fil2" points="11.353,8.298 11.407,8.298 11.407,8.244 11.461,8.244 11.461,8.19 11.515,8.19 11.515,8.027 11.569,8.027 11.569,7.919 11.623,7.919 11.623,7.811 11.677,7.811 11.677,7.757 11.731,7.757 11.731,7.649 11.785,7.649 11.785,7.541 11.839,7.541 11.839,7.487 11.893,7.487 11.893,7.324 11.948,7.324 11.948,7.216 12.001,7.216 12.001,7.162 12.056,7.162 12.056,7 12.11,7 12.11,6.946 12.164,6.946 12.164,6.892 12.218,6.892 12.218,6.73 12.272,6.73 12.272,6.675 12.326,6.675 12.326,6.513 12.38,6.513 12.38,6.405 12.434,6.405 12.434,6.351 12.488,6.351 12.488,6.243 12.542,6.243 12.542,6.135 12.596,6.135 12.596,6.081 12.65,6.081 12.65,5.972 12.704,5.972 12.704,5.864 12.758,5.864 12.758,5.81 12.812,5.81 12.812,5.648 12.866,5.648 12.866,5.594 12.92,5.594 12.92,5.486 12.974,5.486 12.974,5.324 13.028,5.324 13.028,5.215 13.082,5.215 13.082,5.161 13.136,5.161 13.136,5.053 13.19,5.053 13.19,4.945 13.244,4.945 13.244,4.837 13.299,4.837 13.299,4.674 13.407,4.674 13.407,4.512 13.46,4.512 13.46,4.35 13.515,4.35 13.515,4.296 13.569,4.296 13.569,4.188 13.623,4.188 13.623,4.134 13.677,4.134 13.677,3.971 13.731,3.971 13.731,3.863 13.839,3.863 13.839,3.755 13.893,3.755 13.893,3.647 13.947,3.647 13.947,3.539 14.001,3.539 14.001,3.376 14.109,3.376 14.109,3.214 14.001,3.214 14.001,3.268 13.893,3.268 13.893,3.323 13.731,3.323 13.731,3.376 13.569,3.376 13.569,3.431 13.407,3.431 13.407,3.485 13.19,3.485 13.19,3.539 13.136,3.539 13.136,3.593 12.974,3.593 12.974,3.647 12.812,3.647 12.812,3.701 12.65,3.701 12.65,3.755 12.542,3.755 12.542,3.809 12.272,3.809 12.272,3.863 12.164,3.863 12.164,3.917 11.893,3.917 11.893,3.971 11.785,3.971 11.785,4.026 11.677,4.026 11.677,4.08 11.407,4.08 11.407,4.134 11.245,4.134 11.245,4.188 11.083,4.188 11.083,4.296 10.813,4.296 10.813,4.35 10.759,4.35 10.759,4.404 10.542,4.404 10.542,4.458 10.326,4.458 10.326,4.512 10.272,4.512 10.272,4.62 10.218,4.62 10.218,4.674 10.164,4.674 10.164,4.783 10.11,4.783 10.11,4.891 10.056,4.891 10.056,4.945 10.002,4.945 10.002,5.161 9.948,5.161 9.948,5.215 9.894,5.215 9.894,5.377 9.84,5.377 9.84,5.486 9.786,5.486 9.786,5.594 9.732,5.594 9.732,5.702 9.624,5.702 9.624,5.864 9.57,5.864 9.57,5.972 9.516,5.972 9.516,6.027 9.516,6.081 9.462,6.081 9.462,6.189 9.408,6.189 9.408,6.297 9.354,6.297 9.354,6.405 9.3,6.405 9.3,6.513 9.246,6.513 9.246,6.621 9.138,6.621 9.138,6.73 9.083,6.73 9.083,6.892 9.029,6.892 9.029,6.946 8.975,6.946 8.975,7.108 8.921,7.108 8.921,7.216 8.867,7.216 8.867,7.324 8.759,7.324 8.759,7.487 8.705,7.487 8.705,7.541 8.651,7.541 8.651,7.703 8.597,7.703 8.597,7.757 8.543,7.757 8.543,7.919 8.489,7.919 8.489,7.973 8.435,7.973 8.435,8.082 8.381,8.082 8.381,8.135 8.327,8.135 8.327,8.244 8.273,8.244 8.273,8.406 8.219,8.406 8.219,8.514 8.111,8.514 8.111,8.676 8.057,8.676 8.057,8.893 8.111,8.893 8.111,9.055 8.165,9.055 8.165,9.109 8.219,9.109 8.219,9.271 8.273,9.271 8.273,9.379 8.327,9.379 8.327,9.488 8.381,9.488 8.381,9.542 8.435,9.542 8.435,9.704 8.489,9.704 8.489,9.812 8.543,9.812 8.543,9.92 8.597,9.92 8.597,10.028 8.651,10.028 8.651,10.136 8.705,10.136 8.705,10.245 8.759,10.245 8.759,10.353 8.813,10.353 8.813,10.407 8.867,10.407 8.867,10.515 8.921,10.515 8.921,10.569 8.975,10.569 8.975,10.677 9.029,10.677 9.029,10.839 9.083,10.839 9.083,10.948 9.138,10.948 9.138,11.002 9.191,11.002 9.191,11.164 9.246,11.164 9.246,11.218 9.3,11.218 9.3,11.326 9.354,11.326 9.354,11.489 9.408,11.489 9.408,11.597 9.462,11.597 9.462,11.705 9.57,11.705 9.57,11.651 9.624,11.651 9.624,11.597 9.678,11.597 9.678,11.489 9.732,11.489 9.732,11.38 9.786,11.38 9.786,11.272 9.84,11.272 9.84,11.164 9.894,11.164 9.894,11.056 9.948,11.056 9.948,11.002 10.002,11.002 10.002,10.894 10.056,10.894 10.056,10.786 10.11,10.786 10.11,10.677 10.164,10.677 10.164,10.569 10.218,10.569 10.218,10.515 10.272,10.515 10.272,10.407 10.326,10.407 10.326,10.299 10.38,10.299 10.38,10.136 10.434,10.136 10.434,10.028 10.488,10.028 10.488,9.974 10.542,9.974 10.542,9.812 10.597,9.812 10.597,9.704 10.65,9.704 10.65,9.65 10.705,9.65 10.705,9.542 10.759,9.542 10.759,9.488 10.813,9.488 10.813,9.325 10.867,9.325 10.867,9.271 10.921,9.271 10.921,9.163 10.975,9.163 10.975,9.055 11.029,9.055 11.029,8.947 11.083,8.947 11.083,8.839 11.137,8.839 11.137,8.73 11.191,8.73 11.191,8.622 11.245,8.622 11.245,8.568 11.299,8.568 11.299,8.46 11.353,8.46 "/>
     </g>
    </g>
    <path class="fil3" d="M8.272 8.768c1.432,-2.925 2.123,-4.266 2.074,-4.021 1.869,-0.659 3.02,-1.047 3.453,-1.164 -2.764,5.169 -4.145,7.753 -4.145,7.753 -0.921,-1.712 -1.382,-2.568 -1.382,-2.568z"/>
    <path class="fil3 str0" d="M3.112 4.916c-0.951,-0.769 -1.33,-1.065 -1.135,-0.888 2.467,0.296 3.701,0.444 3.701,0.444 2.532,4.741 3.799,7.111 3.799,7.111 -0.888,1.712 -1.332,2.568 -1.332,2.568 -3.356,-6.156 -5.033,-9.235 -5.033,-9.235z"/>
    <path class="fil4" d="M2.003 4.031c0.149,0.113 0.519,0.408 1.109,0.885 0,0 1.677,3.079 5.033,9.235 0,0 0.444,-0.856 1.332,-2.568 0,0 -1.267,-2.37 -3.799,-7.111 0,0 -1.225,-0.147 -3.675,-0.441z"/>
   </g>
  </g>
 </g>
</svg>
